<svg xmlns="http://www.w3.org/2000/svg" width="1837.5" height="1837.5" viewBox="0 0 1837.5 1837.5"><defs></defs><rect x="0" y="0" width="1837.5" height="1837.5" fill="#1B2A4A"></rect><circle cx="918.75" cy="646.65" r="173" fill="none" stroke="#B8924A" stroke-width="14"></circle><image x="832.35" y="566.5572" width="172.79999999999998" height="160.1856"></image><text x="918.75" y="1007.8499999999999" font-family="AL" font-weight="700" font-size="180" letter-spacing="0.36" fill="#ffffff" text-anchor="middle">MEDINA’S</text><rect x="494.13609680175784" y="1061.35" width="52" height="3" fill="#B8924A"></rect><rect x="1291.363903198242" y="1061.35" width="52" height="3" fill="#B8924A"></rect><text x="918.75" y="1062.85" font-family="LF" font-weight="600" font-size="34" letter-spacing="8.84" fill="#B8924A" text-anchor="middle" dominant-baseline="central" dx="4.42">WATER HEATER SPECIALISTS</text><rect x="588.75" y="1123.85" width="660" height="1.5" fill="rgba(255,255,255,0.2)"></rect><text x="578.5800671386719" y="1182.85" font-family="PM" font-weight="500" font-size="34" letter-spacing="4.760000000000001" fill="rgba(255,255,255,0.85)" dominant-baseline="central">SOLANO</text><g transform="translate(748.580030517578,1167.55) scale(0.9562500000000002,0.95625)"><path d="M12 2 C12 2 4 13 4 20 a8 8 0 0 0 16 0 C20 13 12 2 12 2 Z" fill="#B8924A"></path></g><text x="795.330030517578" y="1182.85" font-family="PM" font-weight="500" font-size="34" letter-spacing="4.760000000000001" fill="rgba(255,255,255,0.85)" dominant-baseline="central">CONTRA COSTA</text><g transform="translate(1116.2899572753906,1167.55) scale(0.9562500000000002,0.95625)"><path d="M12 2 C12 2 4 13 4 20 a8 8 0 0 0 16 0 C20 13 12 2 12 2 Z" fill="#B8924A"></path></g><text x="1163.0399572753906" y="1182.85" font-family="PM" font-weight="500" font-size="34" letter-spacing="4.760000000000001" fill="rgba(255,255,255,0.85)" dominant-baseline="central">NAPA</text><text x="918.75" y="1266.85" font-family="PM" font-weight="500" font-size="66" letter-spacing="3.3000000000000003" fill="#ffffff" text-anchor="middle" dominant-baseline="central">(707) 555-0142</text><text x="918.75" y="1358.35" font-family="PM" font-weight="500" font-size="25" letter-spacing="4" fill="rgba(255,255,255,0.62)" text-anchor="middle" dominant-baseline="central" dx="2">VETERAN-OWNED · LICENSED &amp; INSURED · CA LIC. #1098432</text></svg>